<svg xmlns="http://www.w3.org/2000/svg" viewBox="0 0 31.02 19.24"><g data-name="Layer 2"><path d="M30.87 3.93a.78.78 0 00-.63-.32H16.13L15.37.89a.91.91 0 00-.7-.57L11.38 0a.79.79 0 00-.89.7.79.79 0 00.69.89l2.72.25 2.72 9.87a.76.76 0 00.76.57h10.77a.9.9 0 00.82-.57l2-7.09a.88.88 0 00-.1-.69zm-3.29 6.77H18l-1.49-5.5h12.65zm-8.73 2.72a2.91 2.91 0 100 5.82 3 3 0 003-2.91 3 3 0 00-3-2.91zm0 4.24a1.35 1.35 0 01-1.39-1.33 1.39 1.39 0 111.39 1.33zm7.53-4.24a2.91 2.91 0 103 2.91 3 3 0 00-3-2.91zm0 4.24A1.35 1.35 0 0125 16.33 1.39 1.39 0 0126.38 15a1.35 1.35 0 011.39 1.33 1.39 1.39 0 01-1.39 1.33zM10.57 6.14a.77.77 0 00-.76-.76h-9a.82.82 0 00-.81.76.77.77 0 00.76.76h9a.77.77 0 00.81-.76zm-.19 3.04H4.24a.76.76 0 100 1.52h6.14a.76.76 0 100-1.52z" data-name="Layer 1"/></g></svg>