<svg xmlns="http://www.w3.org/2000/svg" width="16px" height="16px"><path d="M15.492 8.95a3 3 0 00.45-1.63 2.52 2.52 0 00-.56-1.58 2.58 2.58 0 00-2-1.08h-1.2c.07-.192.127-.39.17-.59a5.25 5.25 0 00.07-1.19 3.52 3.52 0 00-.49-1.72 2.47 2.47 0 00-.73-.71A3.28 3.28 0 009.852 0h-.39a1.68 1.68 0 00-.72.16 2 2 0 00-1 1.22c-.13.4-.23.81-.33 1.22l-.03.21a1.58 1.58 0 01-.29.63l-.63.74-.34.43c-.27.39-1.19 1.3-1.19 1.3l-.08.11v8.58l.66.19.82.26 1.2.38c.44.14.89.24 1.35.34h.15c.48.094.97.134 1.46.12h.6a4.66 4.66 0 001.92-.31 2.82 2.82 0 001.24-1 3.11 3.11 0 00.48-1.65 3 3 0 00.53-1.93v-.13a2.76 2.76 0 00.23-1.92zm-1.45.24c.059.342.003.694-.16 1a1.84 1.84 0 00-.14.9 1.4 1.4 0 01-.27.94 1.68 1.68 0 00-.27.85c0 .294-.083.582-.24.83a1.28 1.28 0 01-.58.47 3 3 0 01-1.31.17h-.45a5.79 5.79 0 01-1.11-.05 15.63 15.63 0 01-1.56-.38l-1.18-.37-.41-.13V6.69l.93-1.1.36-.43.06-.08c.18-.22.35-.43.54-.64.303-.37.509-.81.6-1.28l.06-.25c.1-.39.07-1.16.5-1.37a1 1 0 01.92.2 1.3 1.3 0 01.51.78 3.3 3.3 0 01-.14 1.73l-.33 1a5.18 5.18 0 01-.3.87c.9 0 1.78.09 2.68.07a1.5 1.5 0 011.55.7c.112.233.147.496.1.75a2.9 2.9 0 01-.31.75 1.39 1.39 0 00-.05.8zM1.602 6a1.44 1.44 0 00-.75.15 1.47 1.47 0 00-.85 1.39v5.53a1.48 1.48 0 00.85 1.41c.21.098.438.15.67.15h2.74V6h-2.66zm1.17 7.15h-1.26V7.47h1.26v5.68z"/></svg>